<?xml version="1.0" encoding="utf-8"?>
<!-- Generator: Adobe Illustrator 27.5.0, SVG Export Plug-In . SVG Version: 6.00 Build 0)  -->
<svg version="1.1" id="_x39_" xmlns="http://www.w3.org/2000/svg" xmlns:xlink="http://www.w3.org/1999/xlink" x="0px" y="0px"
	 viewBox="0 0 515 515" style="enable-background:new 0 0 515 515;" xml:space="preserve">
<g>
	<g>
		<path style="fill:#231F20;" d="M295.659,169.097l0.497,1.656l-0.829,1.487l-1.654,0.498l-1.736-0.333l-1.324-0.66l-0.993-0.912
			l-1.736,1.161l-1.737,0.579l-1.653,0.165l-1.654-0.165l-1.656-0.499l-1.405-0.909l-1.324-1.323l-1.158-1.656l-0.496-1.158
			l-0.497-1.242l-0.33-1.323l-0.331-1.572l-0.247-1.656l-0.084-1.737l-0.083-1.985v-1.488l0.083-1.488l0.248-1.656l0.248-1.656
			l0.331-1.652l0.496-1.572l0.579-1.572l0.744-1.491l0.91-1.404l1.158-1.242l1.242-0.993l1.487-0.828l1.739-0.495l1.901-0.165h1.407
			l1.489,0.246l1.736,0.663l1.324,0.744l1.24,1.077l1.24,1.407l1.075,1.817l0.167,1.737l-1.075,1.326l-1.325,0.246l-1.157-0.329
			v1.656v1.653v1.572v1.656v1.653v1.656v1.572v1.653v1.656v1.737l0.082,1.407l0.166,0.993l1.406,0.663L295.659,169.097z
			 M291.191,146.681l-1.076-1.158l-1.075-0.747l-1.404-0.495l-1.242-0.084l-1.901,0.414l-1.572,1.077l-1.076,1.488l-0.745,1.572
			l-0.579,1.737l-0.413,1.737l-0.248,1.821l-0.165,1.821v1.653l0.083,2.235l0.164,1.986l0.332,1.652l0.414,1.407l0.579,1.242
			l1.487,1.653l1.739,0.582l1.157-0.168l1.157-0.744l0.746-0.993l0.495-1.572v-1.323v-1.656v-1.653v-1.572v-1.656v-1.653v-1.656
			v-1.572v-1.653v-1.656l0.662-1.572l1.572-0.663L291.191,146.681z"/>
	</g>
	<g>
		<path style="fill:#231F20;" d="M319.647,155.365l-0.082,1.737l-0.247,1.74l-0.25,1.653l-0.413,1.656l-0.497,1.572l-0.497,1.487
			l-0.66,1.407l-0.911,1.656l-1.158,1.404l-1.239,1.158l-1.407,0.912l-1.49,0.579l-1.736,0.249l-1.819-0.085l-1.654-0.495v1.572
			v1.653v1.572v1.572v1.572v1.656v1.572l-0.662,1.572l-1.572,0.66l-1.571-0.66l-0.662-1.572v-1.656v-1.737v-1.656v-1.653v-1.737
			v-1.656v-1.656v-1.737v-1.653v-1.656v-1.737v-1.653v-1.74v-1.652v-1.656v-1.736v-1.653v-1.656v-1.737v-1.656v-1.652v-1.737v-1.656
			l-0.082-2.4l-0.248-1.652l-1.324-0.663l-1.489-0.828l-0.496-1.652l0.828-1.491l1.654-0.495l1.571,0.329l1.24,0.498l0.993,0.744
			l1.241-0.828l1.405-0.495l1.49-0.249h0.082h0.165h0.084l1.736,0.165l1.572,0.414l1.407,0.579l1.24,0.909l1.075,1.077l0.993,1.239
			l0.826,1.407l0.663,1.407l0.578,1.491l0.413,1.572l0.331,1.653l0.25,1.656l0.247,1.818l0.082,1.74v1.239V155.365z
			 M313.609,163.224l0.497-1.407l0.412-1.572l0.331-1.572l0.165-1.653l0.167-1.656v-1.737v-1.074l-0.083-1.737l-0.249-1.74
			l-0.247-1.652l-0.414-1.572l-0.414-1.407l-0.579-1.323l-0.91-1.407l-1.075-1.077l-1.405-0.66l-1.572-0.249h-0.167l-1.654,0.744
			l-0.826,1.491v1.158v1.323v1.737v1.656v1.737v1.652v1.74v1.737v1.652v1.737v1.74v1.653v1.736v1.656v1.737l1.323,1.074l1.903,0.414
			l1.654-0.495l1.407-1.242l1.157-1.818L313.609,163.224z"/>
	</g>
	<g>
		<path style="fill:#231F20;" d="M344.548,155.365l-0.082,1.737l-0.247,1.74l-0.249,1.653l-0.414,1.656l-0.496,1.572l-0.497,1.487
			l-0.661,1.407l-0.911,1.656l-1.157,1.404l-1.24,1.158l-1.407,0.912l-1.489,0.579l-1.736,0.249l-1.82-0.085l-1.654-0.495v1.572
			v1.653v-3.253v1.572v1.572v1.656v1.572l-0.662,1.572l-1.572,0.66l-1.571-0.66l-0.661-1.572v-1.656v-1.737v-1.656v-1.653v3.088
			v-1.656v-1.656v-1.737v-1.653v-1.656v-1.737v-1.653v-1.74v-1.652v-1.656v-1.736v-1.653v-1.656v-1.737v-1.656v-1.652v-1.737v-1.656
			l-0.083-2.4l-0.248-1.652l-1.323-0.663l-1.49-0.828l-0.496-1.652l0.828-1.491l1.654-0.495l1.571,0.329l1.241,0.498l0.992,0.744
			l1.242-0.828l1.405-0.495l1.489-0.249h0.083h0.164h0.084l1.737,0.165l1.572,0.414l1.406,0.579l1.24,0.909l1.076,1.077l0.992,1.239
			l0.826,1.407l0.663,1.407l0.579,1.491l0.412,1.572l0.332,1.653l0.249,1.656l0.247,1.818l0.082,1.74v1.239V155.365z
			 M338.511,163.224l0.496-1.407l0.412-1.572l0.332-1.572l0.164-1.653l0.167-1.656v-1.737v-1.074L340,150.817l-0.249-1.74
			l-0.248-1.652l-0.414-1.572l-0.414-1.407l-0.578-1.323l-0.911-1.407l-1.075-1.077l-1.405-0.66l-1.572-0.249h-0.166l-1.654,0.744
			l-0.827,1.491v1.158v1.323v1.737v1.656v1.737v1.652v1.74v1.737v1.652v1.737v1.74v1.653v1.736v1.656v1.737l1.323,1.074l1.903,0.414
			l1.654-0.495l1.407-1.242l1.158-1.818L338.511,163.224z"/>
	</g>
	<g>
		<path style="fill:#231F20;" d="M407.087,189.695l-0.412,1.737l-0.745,1.656l-0.744,1.242l-0.993,1.074l-1.075,0.993l-1.324,0.912
			l-1.241,0.579l-1.322,0.495l-1.489,0.414l-1.654,0.33l-1.738,0.165h-1.654l-1.654-0.081l-1.654-0.165l-1.572-0.249l-1.572-0.414
			l-1.571-0.414l-1.489-0.414l-1.489-0.579l-1.488-0.579l-1.488-0.66l-1.49-0.663l-1.489-0.744l-1.407-0.744l-1.487-0.828
			l-1.406-0.744l-1.49-0.828l-1.404-0.828l-1.49-0.828l-1.406-0.828l-0.415,1.572l-0.496,1.491l-0.579,1.572l-0.579,1.488
			l-0.661,1.407l-0.743,1.323l-0.828,1.326l-0.91,1.158l-0.993,1.158l-1.076,1.074l-1.157,0.993l-1.24,0.912l-1.324,0.825
			l-1.405,0.663l-1.572,0.663l-1.572,0.495l-1.82,0.414l-1.819,0.249l-1.985,0.165l-1.904-0.084l-1.818-0.165l-1.737-0.249
			l-1.571-0.495l-1.407-0.579l-1.405-0.663l-1.242-0.828l-1.075-0.909l-1.075-0.993l-0.91-1.074l-0.744-1.158l-0.91-1.572
			l-0.579-1.74l-0.414-1.818l-0.248-1.821v-1.821l0.248-1.817l0.496-1.74l0.745-1.737l0.662-1.239l0.828-1.161l0.908-1.158
			l1.075-0.993l1.158-0.993l1.325-0.825l1.488-0.828l1.572-0.579l1.654-0.579l1.901-0.33l1.986-0.249l2.068-0.084l1.654,0.084
			l1.654,0.165l1.571,0.165l1.49,0.33l1.571,0.333l1.489,0.414l1.489,0.495l1.489,0.579l1.406,0.579l1.488,0.663l1.407,0.66
			l0.165-1.487l0.165-1.488l0.083-1.491l0.084-1.407l-1.904,0.747l-1.654,0.165l-1.82-0.084l-1.57-0.33l-1.406-0.579l-1.158-0.912
			l-0.993-1.074l-0.828-1.323l-0.414-1.158l-0.412-1.242l-0.249-1.407l-0.165-1.572l-0.165-1.653l-0.084-1.905v-1.986v-1.572v-1.653
			v-9.844v-1.656v-1.572v-1.653v-1.572v-1.656v-1.737l-0.082-1.407l-0.248-0.993l-1.407-0.66l-1.488-0.828l-0.413-1.656l0.826-1.488
			l1.572-0.498l1.903,0.414l1.405,0.747l0.993,0.989l0.745,1.327l0.413,1.238l0.166,1.326l0.083,1.572v1.653v1.656v1.572v1.653
			v1.572v1.656v9.844v1.653v1.572v2.4l0.164,2.07l0.165,1.817l0.331,1.491l0.415,1.158l0.743,0.993l1.242,0.66l1.736,0.169
			l1.075-0.25l1.158-0.744l0.746-1.077l0.579-1.652v-1.572v-1.656l-0.084-1.656v-1.653v-1.656v-1.902v-1.821v-1.817v-1.74v-1.737
			v-1.572v-1.572v-2.151l0.663-1.572l1.571-0.66l1.571,0.66l0.661,1.572v2.151v1.572v1.572v1.737v1.74v1.817v1.821v1.902v1.737
			v1.656v1.737v1.737l0.083,1.656v1.653v1.572v1.572v0.084v1.653l-0.083,1.656l-0.082,1.737l-0.167,1.656l-0.164,1.737l-0.248,1.736
			l1.488,0.744l1.406,0.828l1.407,0.828l1.489,0.828l1.572,0.909l1.487,0.828l1.572,0.828l1.489,0.744l1.571,0.744l1.49,0.663
			l1.571,0.66l1.571,0.579l1.573,0.498l1.571,0.414l1.571,0.33l1.572,0.165l1.654,0.165h1.654l2.068-0.249l1.819-0.411l1.489-0.747
			l1.489-1.074l0.993-1.407l0.579-1.407l0.164-1.488l-0.247-1.242l-0.496-1.242l-0.249-1.652l1.075-1.407l1.655-0.164l1.406,0.993
			l0.661,1.488l0.496,1.491l0.167,1.572L407.087,189.695z M360.1,191.432l0.497-1.568l0.497-1.656l0.412-1.737l-1.572-0.744
			l-1.489-0.747l-1.57-0.66l-1.572-0.579l-1.571-0.579l-1.656-0.414l-1.569-0.414l-1.656-0.249l-1.654-0.165l-1.654-0.084
			l-2.15,0.084l-1.904,0.33l-1.819,0.414l-1.571,0.663l-1.407,0.828l-1.24,0.909l-0.992,0.993l-0.911,1.073l-0.661,1.242
			l-0.579,1.572l-0.331,1.656l-0.083,1.737l0.249,1.653l0.497,1.572l0.743,1.572l0.746,1.077l0.99,0.993l1.076,0.828l1.242,0.744
			l1.405,0.579l1.489,0.495l1.738,0.249l1.901,0.084l1.985-0.168l1.819-0.246l1.739-0.498l1.572-0.579l1.405-0.66l1.323-0.912
			l1.24-0.909l1.076-1.077l0.993-1.158l0.827-1.239l0.827-1.326l0.661-1.407L360.1,191.432z"/>
	</g>
	<g>
		<path style="fill:#231F20;" d="M198.162,317.015l0.679,2.442l0.544,2.582l0.407,2.442l0.407,2.579l0.272,2.581l0.272,2.715v2.58
			v2.579l-0.136,2.579l-0.272,2.716l-0.271,2.579l-0.407,2.581l-0.544,2.443l-0.678,2.58l-0.679,2.444l-0.95,2.715l-0.951,2.716
			l-1.221,2.579l-1.222,2.445l-1.357,2.442l-1.631,2.309l-1.493,2.309l-1.766,2.036l-1.9,2.037l-1.9,1.765l-2.038,1.766
			l-2.172,1.493l-2.307,1.357l-2.444,1.223l-2.445,0.95l-2.714,0.952l-2.717,0.542l-2.714,0.408l-2.988,0.271h-2.172l-2.715-0.271
			l-2.716-0.408l-2.579-0.679l-2.445-0.95l-2.309-1.086L143.716,383l-2.036-1.63l-1.764-1.764l-1.63-2.038l-1.493-2.307
			l-1.086-2.444l-0.95-2.579l-0.543-2.853l-0.272-2.986v-2.037l0.136-2.58l0.543-2.443l0.679-2.444l0.95-2.309l1.223-2.035
			l1.493-2.036l1.901-2.038l2.172-1.628l2.443-1.495l2.715-1.086l2.988-0.678l2.715,0.541l1.493,2.445l-0.679,2.715l-2.443,1.494
			l-2.988,0.95l-2.58,1.358l-2.036,2.035l-1.493,2.037l-0.952,2.309l-0.679,2.581l-0.27,2.579v1.493l0.27,2.852l0.816,2.579
			l1.086,2.444l1.357,2.037l1.766,1.764l2.038,1.631l2.307,1.221l2.444,0.951l2.715,0.542l2.85,0.271h1.765l2.716-0.271l2.715-0.407
			l2.579-0.814l2.445-0.95l2.309-1.087l2.172-1.493l2.036-1.493l1.9-1.765l1.901-1.9l1.629-2.038l1.629-2.307l1.493-2.309
			l1.222-2.444l1.222-2.58l1.086-2.579l0.95-2.716l0.679-2.579l0.679-2.58l0.407-2.58l0.407-2.579l0.272-2.716l0.271-2.579v-2.716
			v-2.715l-0.271-2.58l-0.272-2.581l-0.407-2.579l-0.543-2.442l-0.679-2.445l-0.815-2.445l-1.087-2.579l-1.086-2.442l-1.357-2.445
			l-1.629-2.172l-1.629-2.173l-1.765-1.9l-2.037-1.629l-2.172-1.63l-2.309-1.358l-2.579-1.085l-2.715-0.95l-2.852-0.544
			l-2.987-0.406l-3.258-0.137l-2.852,0.137l-2.716,0.27l-2.715,0.68l-2.715,0.813l-2.443,0.951l-2.445,1.221l-2.308,1.358
			l-2.173,1.494l-2.036,1.765l-1.765,1.9l-1.493,2.037l-1.223,2.173l-0.95,2.443l-0.679,2.445l-0.271,2.579v0.542l0.271,2.853
			l0.679,2.442l1.222,2.173l1.629,1.494l1.9,1.087l2.445,0.406h0.271l3.531-0.951l1.222-2.579l-1.631-2.172l-1.357-2.58l0.679-2.579
			l2.443-1.358l2.715,0.68l2.036,1.899l1.359,2.038l0.814,2.036l0.409,3.122l-0.816,2.988l-1.493,2.442l-2.172,2.038l-2.309,1.358
			l-2.715,0.679l-2.852,0.271h-0.407h-0.135l-2.852-0.271l-2.579-0.815l-2.309-1.221l-1.901-1.63l-1.766-1.9l-1.357-2.037
			l-1.086-2.309l-0.679-2.444l-0.407-2.579l-0.136-2.715v-0.679l0.272-2.852l0.543-2.579l0.814-2.581l1.086-2.579l1.223-2.309
			l1.629-2.172l1.629-2.037l1.9-1.901l2.038-1.764l2.036-1.494l2.309-1.494l2.307-1.221l2.444-1.086l2.58-0.952l2.579-0.814
			l2.581-0.679l2.715-0.407l2.716-0.272l2.715-0.135l3.123,0.135l2.988,0.272l2.85,0.407l2.715,0.679l2.58,0.95l2.444,0.95
			l2.309,1.222l2.172,1.357l2.036,1.495l2.037,1.629l1.765,1.766l1.766,1.899l1.493,2.037l1.493,2.172l1.358,2.173l1.222,2.309
			l1.086,2.444l0.95,2.443L198.162,317.015z M157.973,374.446l-1.086-2.579v-2.715v-2.717v-2.58v-2.715v-2.717v-2.714v-2.581v-2.715
			v-2.716v-2.716v-2.579v-2.715v-2.716v-2.716v-2.715v-2.58v-2.715v-2.716v-2.716v-2.58v-2.714v-2.717v-2.851l-0.271-2.309
			l-0.272-1.63l-2.307-1.085l-2.444-1.357l-0.814-2.717l1.357-2.443l2.715-0.815l2.986,0.68l2.309,1.222l1.766,1.629l1.222,2.173
			l0.543,2.036l0.407,2.173l0.136,2.58v2.715v2.717v2.714v2.58v2.716v2.716v2.715v2.58v2.715v2.716v2.716v2.715v2.579v2.716v2.716
			v2.715v2.581v2.714v2.717v2.715v2.58v2.717v2.715l-1.086,2.579l-2.58,1.086L157.973,374.446z"/>
	</g>
	<g>
		<path style="fill:#231F20;" d="M238.221,366.655l0.815,2.715l-1.359,2.443l-2.715,0.814l-2.85-0.543l-2.172-1.086l-1.631-1.493
			l-2.85,1.9l-2.852,0.951l-2.715,0.271l-2.716-0.271l-2.715-0.814l-2.309-1.494l-2.172-2.172l-1.9-2.716l-0.815-1.901l-0.814-2.036
			l-0.543-2.172l-0.543-2.58l-0.407-2.716l-0.136-2.851l-0.136-3.259v-2.443l0.136-2.445l0.407-2.715l0.407-2.716l0.543-2.716
			l0.815-2.579l0.95-2.58l1.222-2.444l1.493-2.308l1.902-2.036l2.036-1.63l2.443-1.358l2.852-0.815l3.122-0.271h2.309l2.445,0.408
			l2.85,1.087l2.172,1.222l2.036,1.764l2.038,2.31l1.766,2.985l0.271,2.853l-1.766,2.172l-2.172,0.407l-1.9-0.542v2.714v2.717v2.579
			v2.716v2.716v2.715v2.579v2.716v2.716v2.852l0.136,2.309l0.271,1.628l2.309,1.086L238.221,366.655z M230.89,329.86l-1.765-1.901
			l-1.766-1.221l-2.308-0.815l-2.037-0.137l-3.122,0.679l-2.58,1.767l-1.766,2.442l-1.222,2.581l-0.95,2.851l-0.679,2.851
			l-0.407,2.988l-0.273,2.986v2.716l0.136,3.665l0.273,3.259l0.543,2.715l0.679,2.309l0.95,2.037l2.443,2.716l2.852,0.949l1.9-0.271
			l1.901-1.223l1.223-1.629l0.814-2.58v-2.172v-2.716v-2.716v-2.579v-2.715v-2.716v-2.716v-2.579v-2.717v-2.714l1.086-2.581
			l2.58-1.086L230.89,329.86z"/>
	</g>
	<g>
		<path style="fill:#231F20;" d="M339.375,396.577l-0.68,2.853l-1.223,2.715l-1.221,2.036l-1.629,1.766l-1.766,1.629l-2.172,1.493
			l-2.037,0.951l-2.172,0.815l-2.445,0.68l-2.715,0.543l-2.85,0.27h-2.718l-2.714-0.135l-2.717-0.273l-2.579-0.406l-2.579-0.68
			l-2.58-0.679l-2.444-0.68l-2.443-0.95l-2.444-0.95l-2.443-1.086l-2.444-1.086l-2.444-1.223l-2.309-1.222l-2.443-1.357
			l-2.308-1.223l-2.444-1.356l-2.308-1.358l-2.444-1.357l-2.309-1.358l-0.678,2.579l-0.815,2.445l-0.95,2.579l-0.952,2.444
			l-1.085,2.307l-1.222,2.173l-1.358,2.172l-1.493,1.901l-1.629,1.902l-1.766,1.764l-1.9,1.629l-2.036,1.494l-2.172,1.357
			l-2.309,1.087l-2.58,1.086l-2.58,0.813l-2.986,0.68l-2.988,0.407l-3.258,0.271l-3.123-0.135l-2.986-0.272l-2.852-0.407
			l-2.58-0.815l-2.308-0.95l-2.309-1.086l-2.037-1.358l-1.765-1.493l-1.766-1.629l-1.493-1.766l-1.222-1.9l-1.493-2.581l-0.95-2.85
			l-0.679-2.987l-0.407-2.987v-2.987l0.407-2.986l0.815-2.852l1.221-2.851l1.086-2.036l1.358-1.9l1.493-1.901l1.766-1.629l1.9-1.63
			l2.172-1.356l2.445-1.358l2.579-0.95l2.716-0.95l3.122-0.545l3.259-0.407l3.395-0.135l2.716,0.135l2.715,0.273l2.579,0.271
			l2.444,0.542l2.58,0.544l2.443,0.679l2.445,0.815l2.445,0.95l2.308,0.95l2.444,1.086l2.307,1.087l0.272-2.445l0.271-2.443
			l0.136-2.443l0.136-2.308l-3.122,1.222l-2.716,0.271l-2.988-0.136l-2.579-0.543l-2.309-0.95l-1.9-1.493l-1.629-1.766l-1.359-2.172
			l-0.679-1.9l-0.678-2.037l-0.408-2.308l-0.271-2.58l-0.271-2.716l-0.136-3.123v-3.258v-2.58v-2.715v-2.58v-2.717v-2.579v-2.716
			v-2.579v-2.716v-2.852l-0.136-2.307l-0.407-1.631l-2.308-1.086l-2.443-1.357l-0.679-2.715l1.357-2.445l2.581-0.814l3.122,0.68
			l2.309,1.222l1.628,1.63l1.222,2.173l0.679,2.036l0.271,2.172l0.136,2.579v2.716v2.716v2.579v2.716v2.579v2.717v2.58v2.715v2.58
			v3.938l0.272,3.395l0.271,2.986l0.543,2.444l0.679,1.9l1.223,1.63l2.036,1.086l2.852,0.271l1.765-0.407l1.9-1.221l1.223-1.766
			l0.95-2.716v-2.58v-2.714l-0.136-2.717v-2.715v-2.717v-3.122v-2.986v-2.988v-2.851v-2.851v-2.581v-2.579v-3.53l1.086-2.58
			l2.579-1.086l2.581,1.086l1.086,2.58v3.53v2.579v2.581v2.851v2.851v2.988v2.986v3.122v2.853v2.715v2.852v2.852l0.136,2.716v2.715
			v2.58v2.579v0.136v2.716l-0.136,2.716l-0.136,2.851l-0.272,2.717l-0.271,2.85l-0.407,2.852l2.443,1.222l2.308,1.357l2.309,1.358
			l2.444,1.358l2.58,1.494l2.443,1.356l2.58,1.358l2.443,1.223l2.58,1.221l2.443,1.086l2.58,1.086l2.579,0.951l2.58,0.815l2.58,0.68
			l2.58,0.543l2.579,0.271l2.716,0.272h2.715l3.396-0.407l2.985-0.679l2.445-1.223l2.443-1.766l1.63-2.308l0.949-2.308l0.273-2.445
			l-0.407-2.035l-0.814-2.036l-0.407-2.717l1.766-2.308l2.715-0.272l2.307,1.631l1.087,2.442l0.815,2.444l0.271,2.58
			L339.375,396.577z M262.255,399.43l0.815-2.58l0.814-2.715l0.679-2.853l-2.579-1.222l-2.444-1.223l-2.58-1.086l-2.579-0.95
			l-2.581-0.95l-2.715-0.679l-2.58-0.68l-2.715-0.407l-2.715-0.271l-2.716-0.136l-3.529,0.136l-3.124,0.543l-2.986,0.679
			l-2.579,1.087l-2.309,1.357l-2.036,1.492l-1.631,1.63l-1.493,1.766l-1.086,2.036l-0.95,2.58l-0.543,2.714l-0.136,2.853
			l0.408,2.716l0.814,2.58l1.222,2.579l1.223,1.766l1.628,1.628l1.765,1.358l2.038,1.223l2.307,0.95l2.445,0.813l2.851,0.408
			l3.123,0.137l3.258-0.272l2.986-0.407l2.852-0.815l2.58-0.95l2.309-1.086l2.172-1.493l2.036-1.493l1.766-1.766l1.629-1.901
			l1.358-2.036l1.356-2.173l1.087-2.309L262.255,399.43z"/>
	</g>
	<g>
		<path style="fill:#231F20;" d="M451.31,215.034l-0.135,2.852l-0.409,2.715l-0.814,2.715l-1.222,2.443l-1.63,2.309l-1.629,1.629
			l-1.9,1.222l-2.309,1.086l-2.444,0.543l-2.443,0.135l-2.988-0.407l-2.715-1.086l-2.443-1.766l-2.036-2.172l-1.494-2.714
			l-0.814-3.124l-0.136-2.986l1.222-2.579l2.579-0.952l2.579,1.222l0.95,2.58l0.137,1.629l0.679,2.172l1.087,1.493l3.529,1.358
			l1.358-0.136l2.036-0.678l1.63-1.358l1.222-1.9l0.815-2.309l0.407-2.852l-0.136-2.988l-0.68-2.714l-0.95-2.581l-1.493-2.443
			l-2.038-2.172l-2.307-1.766l-2.58-1.222l-2.717-0.814l-2.85-0.408h-2.851l-3.259,0.544l-2.987,1.086l-2.851,1.764l-2.309,2.172
			l-1.358,1.766l-1.086,2.036l-0.813,2.309l-0.544,2.443l-0.27,2.852l0.135,2.988l0.406,2.986l0.952,2.581l1.086,2.443l1.493,2.036
			l1.766,2.038l1.899,1.764l2.038,1.629l2.173,1.493l2.307,1.495l2.309,1.357l2.443,1.493l2.445,1.494l2.308,1.629l2.309,1.766
			l1.9,1.764l1.765,2.037l1.63,2.172l1.223,2.444l0.813,2.716l0.544,2.987l0.136,2.173l-0.272,2.85l-0.679,2.716l-1.087,2.309
			l-1.356,2.036l-1.766,1.902l-1.9,1.628l-2.036,1.222l-2.309,0.951l-2.309,0.68l-2.444,0.406h-2.307l-2.853-0.136l-2.579-0.543
			l-2.445-0.679l-2.172-1.087l-1.9-1.356l-1.629-1.495l-1.766-2.036l-1.356-2.309l-1.086-2.443l-0.952-2.715l-0.679-2.852
			l0.544-2.716l2.308-1.629l2.715,0.543l1.63,2.308l0.679,2.58l0.813,2.444l1.087,1.9l1.358,1.765l2.036,1.766l2.852,1.087
			l3.396,0.406l1.492-0.136l2.579-0.543l2.173-0.95l2.037-1.357l1.494-1.766l0.95-2.172l0.406-2.579l-0.136-1.358l-0.542-2.445
			l-0.951-2.307l-1.357-2.038l-1.766-1.9l-2.036-1.629l-2.309-1.629l-2.309-1.629l-2.579-1.493l-2.309-1.358l-2.309-1.493
			l-2.307-1.493l-2.173-1.629l-2.037-1.766l-1.9-1.9l-1.766-2.038l-1.493-2.172l-1.358-2.58l-1.086-2.715l-0.813-2.988l-0.407-3.258
			l-0.136-3.123l0.136-2.986l0.407-2.716l0.679-2.579l0.813-2.309l1.087-2.309l1.222-2.036l1.494-1.766l2.309-2.309l2.443-1.9
			l2.715-1.493l2.852-1.222l2.987-0.815l3.123-0.407l2.851-0.136l2.716,0.272l2.85,0.543l2.717,0.95l2.58,1.086l2.579,1.493
			l2.308,1.765l2.036,2.037l1.765,2.172l1.357,2.444l1.087,2.443l0.815,2.715l0.543,2.58L451.31,215.034z"/>
	</g>
	<g>
		<path style="fill:#231F20;" d="M399.715,227.523l-1.629,2.445l-2.715,0.543l-2.31-1.493l-1.629-2.309l-1.493-2.309l-1.629-2.309
			l-1.63-2.308l-1.629-2.307l-1.493-2.309l-1.629-2.309l-0.68-2.716l1.629-2.308l2.716-0.678l2.309,1.493l1.629,2.308l1.493,2.307
			l1.63,2.309l1.629,2.309l1.63,2.309l1.492,2.309l1.63,2.307L399.715,227.523z"/>
	</g>
	<g>
		<path style="fill:#231F20;" d="M150.137,199.284l-2.445,1.358l-2.715,0.678l-2.036,1.358l-0.136,0.271l-1.086,1.629l-0.95,2.036
			l-0.816,2.852l-0.678,2.58l-0.679,2.581l-0.815,2.579l-0.678,2.579l-0.679,2.716l-0.679,2.579l-0.679,2.581l-0.814,2.579
			l-0.68,2.58l-0.679,2.581l-0.679,2.58l-0.678,2.579l-0.815,2.715l-0.679,2.58l-0.678,2.581l-0.679,2.579l-0.679,2.579l-0.678,2.58
			l-0.815,2.579l-0.679,2.582l-0.678,2.579l-0.679,2.716l-0.679,2.579l-0.814,2.579l-0.679,2.581l-0.679,2.579l-2.58,2.579
			l-2.715-0.271l-1.766-2.173l-0.679-2.444l-0.678-2.715l-0.544-2.716l-0.678-2.716l-0.543-2.85l-0.679-2.988l-0.544-2.988
			l-0.543-2.85l-0.543-2.852l-0.679-2.988l-0.543-2.851l-0.679-2.987l-0.678-2.986l-0.815-2.988l-0.679-2.85l-0.95-2.852
			l-0.814-2.852l-0.95-2.852l-1.086-2.715l-1.086-2.58l-1.087-2.579l-1.222-2.445l-1.358-2.309l-1.493-2.307l-1.493-2.038
			l-1.629-2.036l-1.629-1.764l-1.901-1.63l-1.9-1.357l-2.172-1.357l-2.172-1.086l-2.308-0.815l-2.443-0.679l-2.717-0.407
			l-2.851-0.136h-0.408l-2.986,0.136l-2.852,0.543l-2.715,0.814l-2.443,1.086l-2.309,1.358l-2.036,1.9l-1.629,2.444l-1.086,2.716
			l-0.408,3.395v0.135l0.272,2.444l0.679,2.445l1.086,2.172l1.493,1.9l2.172,1.765l2.852,1.221l3.53,0.544l3.122-0.272l2.445-0.95
			l1.766-1.494l1.221-1.764l0.679-3.802l-1.086-3.395l-2.308-1.629h-3.53l-2.716-0.543l-1.629-2.309l0.407-2.715l2.309-1.629
			l2.988-0.407l2.579,0.136l2.443,0.678l2.036,1.086l1.901,1.358l1.493,1.765l1.223,2.172l0.814,2.307l0.408,2.581v2.443
			l-0.543,2.579l-0.815,2.445l-1.222,2.036l-1.493,1.901l-1.766,1.629l-2.172,1.357l-2.58,0.952l-2.852,0.678l-3.258,0.136
			l-2.85-0.272l-2.581-0.542l-2.443-0.815l-2.172-1.086l-1.901-1.357l-1.764-1.63l-1.629-2.037l-1.493-2.172l-1.086-2.308
			l-0.679-2.443l-0.543-2.443l-0.136-2.581v-0.136v-0.542l0.272-2.852l0.542-2.715l0.951-2.445l1.221-2.308l1.495-2.037l1.629-1.9
			l2.036-1.629l2.036-1.358l2.309-1.221l2.443-1.086l2.581-0.679l2.715-0.679l2.716-0.272l2.85-0.135h0.815l2.988,0.135l2.714,0.409
			l2.717,0.543l2.58,0.679l2.443,0.95l2.309,1.086l2.036,1.223l2.172,1.493l1.901,1.493l1.766,1.765l1.764,1.766l1.629,2.036
			l1.493,2.036l1.495,2.172l1.357,2.309l1.223,2.309l1.222,2.443l1.086,2.579l1.086,2.581l0.95,2.579l0.95,2.715l0.815,2.716
			l0.814,2.852l0.815,2.714l0.679,2.852l0.678,2.852l0.679,2.852l0.543,2.715l0.679,2.85l0.543,2.852l0.543,2.716l0.543,2.715
			l0.407,2.445l0.543,2.307l0.679-2.714l0.814-2.581l0.679-2.716l0.679-2.715l0.679-2.579l0.814-2.716l0.679-2.715l0.679-2.58
			l0.814-2.715l0.679-2.579l0.679-2.717l0.814-2.714l0.679-2.581l0.679-2.716l0.678-2.715l0.815-2.58l0.679-2.715l0.678-2.715
			l0.815-2.58l0.679-2.715l0.813-2.852l1.086-2.58l1.223-2.309l1.764-2.172l1.901-1.629l2.173-1.222l2.443-0.95l2.717-0.543
			l2.714,0.815l1.358,2.443L150.137,199.284z"/>
	</g>
	<g>
		<path style="fill:#231F20;" d="M174.855,271.479l0.815,2.716l-1.358,2.443l-2.716,0.815l-2.852-0.544l-2.172-1.086l-1.628-1.493
			l-2.852,1.899l-2.852,0.952l-2.715,0.271l-2.716-0.271l-2.715-0.815l-2.309-1.493l-2.172-2.173l-1.9-2.715l-0.815-1.902
			l-0.814-2.036l-0.543-2.172l-0.543-2.579l-0.409-2.716l-0.135-2.852l-0.136-3.258v-2.443l0.136-2.445l0.407-2.715l0.407-2.715
			l0.543-2.716l0.815-2.579l0.95-2.581l1.222-2.443l1.494-2.309l1.9-2.036l2.038-1.629l2.443-1.358l2.852-0.814l3.122-0.272h2.308
			l2.443,0.408l2.852,1.086l2.172,1.222l2.038,1.764l2.036,2.309l1.764,2.986l0.272,2.852l-1.765,2.172l-2.173,0.407l-1.9-0.542
			v2.714v2.717v2.579v2.716v2.715v2.715v2.58v2.715v2.716v2.852l0.135,2.309l0.272,1.627l2.308,1.087L174.855,271.479z
			 M167.523,234.684l-1.766-1.902l-1.765-1.221l-2.307-0.815l-2.038-0.136l-3.122,0.679l-2.58,1.766l-1.765,2.443l-1.223,2.581
			l-0.95,2.85l-0.679,2.852l-0.407,2.988l-0.271,2.986v2.716l0.134,3.666l0.273,3.258l0.543,2.716l0.678,2.309l0.952,2.037
			l2.443,2.715l2.852,0.95l1.901-0.271l1.9-1.222l1.222-1.629l0.814-2.58v-2.172v-2.716v-2.715v-2.58v-2.715v-2.715v-2.716v-2.579
			v-2.717v-2.714l1.086-2.581l2.581-1.086L167.523,234.684z"/>
	</g>
	<g>
		<path style="fill:#231F20;" d="M248.717,181.091l-0.407,2.986l-0.816,2.852l-1.086,2.852l-1.086,2.036l-1.357,1.9l-1.493,1.901
			l-1.765,1.629l-2.037,1.629l-2.172,1.357l-2.309,1.358l-2.579,0.95l-2.852,0.95l-2.988,0.543l-3.259,0.407l-3.529,0.136
			l-2.852-0.136l-2.85-0.271l-2.852-0.407l-2.716-0.543l-2.715-0.816l-2.715-0.814l-2.716-0.95l-2.579-0.951l-2.581-1.086
			l-2.579-1.221l-0.136,2.714l-0.135,2.581l-0.136,2.716l-0.136,2.579l-0.136,2.58v2.579v2.581l-0.136,2.579v2.58v2.581v2.58v2.715
			v2.579v3.666v2.851v2.715v2.852v2.715v2.851l0.136,2.717v2.85v2.715v2.852v2.715v2.852l-0.136,2.443l-0.271,2.173l-0.95,2.579
			l2.172,1.223l2.172,1.358l2.036,1.357l2.036,1.493l1.901,1.494l2.173,1.764l2.172,1.494l1.9,1.224l1.766,0.677l2.443,0.272
			l2.038-0.136l1.9-0.814l1.629-1.224l2.581-1.085l2.58,0.95l1.086,2.579l-1.086,2.579l-1.901,1.765l-2.309,1.358l-2.579,0.95
			l-2.579,0.407h-2.716l-2.852-0.407l-2.172-0.814l-2.172-1.087l-2.172-1.357l-2.172-1.63l-2.172-1.629l-2.172-1.766l-2.309-1.629
			l-2.307-1.629l-2.445-1.224l-2.443-0.949l-2.581-0.407l-2.579-1.222l-0.95-2.716l1.086-2.309l2.172-1.087l2.308-1.085l0.407-1.629
			l0.136-2.309v-2.852v-2.715v-2.852v-2.715v-2.85l-0.136-2.717v-2.851v-2.715v-2.852v-2.715v-2.851v-3.666v-2.716v-2.579v-2.716
			v-2.715v-2.579l0.136-2.581v-2.715l0.136-2.58v-2.715l0.135-2.58l0.136-2.715l0.271-2.715l0.136-2.715l0.272-2.988l-2.444-1.357
			l-2.443-1.358l-2.309-1.357l-2.443-1.358l-2.581-1.493l-2.443-1.357l-2.579-1.358l-2.445-1.223l-2.58-1.222l-2.444-1.086
			l-2.58-1.087l-2.579-0.95l-2.58-0.814l-2.581-0.679l-2.715-0.543l-2.58-0.272l-2.715-0.271h-2.716l-3.395,0.407l-2.85,0.679
			l-2.445,1.223l-2.445,1.9l-1.628,2.172l-0.952,2.309l-0.271,2.443l0.271,2.038l0.952,2.036l0.271,2.716l-1.629,2.308l-2.852,0.407
			l-2.172-1.766l-1.086-2.443l-0.814-2.444l-0.272-2.58l0.136-2.986l0.679-2.852l1.222-2.852l1.221-1.9l1.629-1.766l1.765-1.629
			l2.172-1.495l2.037-1.086l2.308-0.814l2.443-0.679l2.581-0.407l2.85-0.272h2.717l2.714,0.136l2.717,0.272l2.579,0.407l2.58,0.679
			l2.579,0.678l2.445,0.679l2.579,0.951l2.445,0.95l2.443,1.086l2.309,1.086l2.443,1.223l2.445,1.221l2.309,1.358l2.307,1.221
			l2.444,1.358l2.307,1.358l2.445,1.493l2.579,1.357l0.68-2.85l0.95-2.852l0.95-2.716l1.222-2.581l1.358-2.58l1.493-2.307
			l1.629-2.308l1.629-2.037l1.766-1.765l2.036-1.766l2.036-1.493l2.172-1.493l2.445-1.222l2.443-1.086l2.716-0.815l2.852-0.679
			l2.988-0.407l3.259-0.271l3.122,0.136l2.986,0.271l2.852,0.407l2.58,0.815l2.309,0.95l2.309,1.086l2.036,1.357l1.765,1.495
			l1.766,1.629l1.493,1.766l1.221,1.9l1.358,2.58l1.086,2.852l0.679,2.986l0.271,2.988V181.091z M240.843,183.941l0.543-2.715
			l0.137-2.852l-0.409-2.714l-0.814-2.581l-1.222-2.58l-1.223-1.765l-1.629-1.629l-1.766-1.357l-2.036-1.223l-2.309-0.95
			l-2.443-0.815l-2.852-0.407l-3.123-0.136l-3.258,0.272l-2.986,0.407l-2.717,0.679l-2.58,0.95l-2.307,1.223l-2.172,1.357
			l-1.901,1.629l-1.766,1.765l-1.629,1.901l-1.493,2.173l-1.358,2.172l-1.221,2.443l-1.086,2.443l-0.951,2.581l-0.678,2.716
			l-0.68,2.715l2.58,1.222l2.445,1.221l2.579,1.086l2.58,0.952l2.581,0.95l2.58,0.678l2.715,0.679l2.579,0.407l2.716,0.272
			l2.715,0.136l3.529-0.136l3.259-0.543l2.852-0.815l2.715-0.95l2.309-1.357l1.9-1.493l1.765-1.631l1.358-1.9l1.086-1.9
			L240.843,183.941z"/>
	</g>
	<g>
		<path style="fill:#231F20;" d="M233.238,256.641l0.95,2.715l-0.407,2.988l-0.814,2.715l-1.086,2.443l-1.493,2.309l-1.631,1.9
			l-2.036,1.901l-2.309,1.356l-2.443,1.086l-2.579,0.68l-2.716,0.136l-2.309-0.271l-2.308-0.679l-2.173-0.952l-2.036-1.493
			l-1.901-1.9l-1.628-2.444l-0.952-1.899l-0.814-2.038l-0.679-2.173l-0.543-2.443l-0.407-2.715l-0.273-2.986v-3.124l0.136-2.036
			l0.136-2.852l0.27-2.579l0.543-2.716l0.543-2.715l0.816-2.58l1.086-2.581l1.222-2.443l1.494-2.309l1.765-2.036l2.036-1.766
			l2.443-1.222l2.715-0.814l3.122-0.407l3.124,0.407l2.852,1.223l2.307,1.9l1.629,2.445l0.95,2.715l0.272,3.123l-0.543,2.987
			l-1.357,3.122l-1.086,1.493l-1.222,1.493l-1.629,1.359l-1.902,1.357l-2.308,1.222l-2.443,1.086l-2.852,0.815l-3.259,0.814
			l-3.529,1.766v3.393l0.407,3.124l0.544,2.579l0.679,2.309l0.95,1.9l1.9,2.308l2.172,1.493l2.309,0.407l2.309-0.271l2.309-0.95
			l2.036-1.766l1.629-2.036l1.086-2.58l0.543-3.123l1.223-2.443l2.715-0.952L233.238,256.641z M210.428,237.498l-0.95,2.85
			l-0.679,2.988l3.395-0.679l2.988-0.95l2.443-1.086l1.901-1.222l1.357-1.222l1.086-1.357l0.95-2.715l-0.543-2.036l-3.258-2.038
			l-3.123,0.679l-2.445,1.765l-1.9,2.443L210.428,237.498z"/>
	</g>
	<g>
		<path style="fill:#231F20;" d="M272.072,288.08l0.814,2.717l-1.356,2.443l-2.718,0.815l-2.985-0.68l-2.309-1.086l-1.765-1.766
			l-1.222-2.172l-0.68-2.716l-0.271-3.122v-3.531v-2.579v-2.579v-2.58v-2.58v-2.716v-2.579v-2.579v-2.58v-2.581v-2.716l0.135-2.986
			v-3.124l0.136-3.123v-3.122l-0.136-2.986l-0.135-2.717l-0.272-2.443l-0.407-1.901l-1.222-2.443h-0.136l-1.493-0.543l-2.58,0.95
			l-2.444,2.445l-1.494,2.309l-0.814,2.714l-0.409,3.124v2.715v2.716v2.715v2.715v2.716v2.715v2.716v2.716v2.715v2.715v2.717v2.715
			v2.716l-1.086,2.579l-2.58,1.086l-2.579-1.086l-1.086-2.579v-2.716v-2.715v-2.581v-2.714v-2.718v-2.714v-2.717v-2.579v-2.715
			v-2.715v-2.716v-2.715v-2.715v-2.58v-2.715v-2.715v-2.852l-0.136-2.308l-0.407-1.628l-2.172-1.086l-2.445-1.358l-0.814-2.715
			l1.357-2.443l2.716-0.815l2.988,0.679l2.308,1.223l1.764,1.628l1.222,2.172l0.407,1.765l2.715-1.9l2.716-1.086l2.852-0.407
			l2.308,0.27l2.037,0.679l2.172,1.629l1.9,2.307l1.494,3.259l0.543,2.038l0.271,2.443l0.271,2.715v2.852l0.137,2.852v2.986
			l-0.137,2.988v2.85l-0.136,2.988v2.58v2.581v2.58v2.579v2.579v2.716v2.58v2.58v2.579v2.579v3.939l0.543,2.715l2.173,1.086
			L272.072,288.08z"/>
	</g>
	<g>
		<path style="fill:#231F20;" d="M302.082,264.456l0.407,3.122l-0.543,2.853l-1.086,2.579l-1.766,2.172l-2.309,1.63l-2.579,0.951
			l-2.986,0.271l-3.259-0.407l-2.717-0.95l-2.308-1.358l-1.765-1.765l-1.493-2.308l-1.086-2.444l-0.68-2.309l-0.407-2.443
			l-0.407-2.444l-0.136-2.58v-2.579v-2.58v-2.038v-2.307v-2.581v-2.85v-2.852v-2.988v-3.258v-3.123v-2.715v-2.852v-2.851h-2.987
			h-2.987l-2.579-1.086l-1.086-2.581l1.086-2.579l2.579-1.086h2.987h2.987v-2.852v-2.715v-2.58l1.086-2.579l2.58-1.086l2.579,1.086
			l1.086,2.579v2.58v2.715v2.852h1.629h2.988l2.443-0.136l1.629-0.271l1.223-2.172l1.358-2.445l2.714-0.814l2.444,1.493l0.68,2.715
			l-0.68,2.987l-1.222,2.308l-1.629,1.629l-2.308,1.087l-2.038,0.543l-2.307,0.272l-2.444,0.136h-2.853h-1.629v2.851v2.852v2.715
			v3.258v3.123v2.988v2.986v2.715v2.581v2.307v2.038v2.58v2.715l0.273,2.579l0.406,2.443l0.544,2.173l1.222,2.172l1.9,1.495
			l2.716,0.677l2.038-0.406l1.221-1.222l0.542-1.765l-0.678-2.716l-0.271-2.852l1.766-2.036l2.851-0.272l2.173,1.766
			L302.082,264.456z"/>
	</g>
	<g>
		<path style="fill:#231F20;" d="M307.785,220.194l-1.63-1.495l-0.678-2.309l0.678-2.307l1.63-1.493l2.308-0.679l2.309,0.679
			l1.63,1.493l0.679,2.307l-0.679,2.309l-1.63,1.495l-2.309,0.678L307.785,220.194z M319.055,272.059l0.814,2.716l-1.357,2.443
			l-2.716,0.679l-2.987-0.679l-2.443-1.086l-1.63-1.764l-1.222-2.173l-0.68-2.716l-0.271-3.123v-3.53v-2.715v-2.716v-2.715v-2.715
			v-2.716v-2.715v-2.58v-2.715v-2.715v-2.715v-2.716v-2.715v-2.715l1.086-2.716l2.579-1.086l2.58,1.086l1.086,2.716v2.715v2.715
			v2.716v2.715v2.715v2.715v2.58v2.715v2.716v2.715v2.715v2.716v2.715v2.852l0.137,2.309l0.406,1.629l2.173,1.085L319.055,272.059z"
			/>
	</g>
	<g>
		<path style="fill:#231F20;" d="M410.022,296.498l0.815,2.853l0.407,2.985v2.988l-0.271,2.986l-0.679,2.987l-1.086,2.85
			l-1.358,2.581l-1.221,1.9l-1.495,1.765l-1.764,1.63l-1.766,1.493l-2.037,1.358l-2.308,1.086l-2.309,0.95l-2.579,0.815
			l-2.851,0.407l-2.988,0.271l-3.122,0.136l-3.259-0.272l-3.259-0.541l-3.122-0.68l-2.852-0.951l-2.58-1.086l-2.444-1.357
			l-2.307-1.493l-2.038-1.629l-1.899-1.901l-1.766-2.036l-1.493-2.037l-1.494-2.309l-1.222-2.444l-1.223-2.443l-1.086-2.442
			l-0.814-2.445l-0.815-2.716l-0.679-2.579l-2.717,1.493l-2.579,1.493l-2.308,1.358l-2.443,1.357l-2.309,1.223l-2.309,1.357
			l-2.444,1.223l-2.442,1.222l-2.309,1.086l-2.445,1.087l-2.443,0.95l-2.578,0.95l-2.445,0.679l-2.579,0.68l-2.579,0.679
			l-2.581,0.407l-2.716,0.272l-2.715,0.134h-2.716l-2.852-0.27l-2.579-0.543l-2.443-0.679l-2.309-0.814l-2.036-0.951l-2.173-1.493
			l-1.765-1.629l-1.63-1.766l-1.223-2.037l-1.222-2.715l-0.679-2.852l-0.136-2.986l0.272-2.581l0.813-2.443l1.087-2.443l2.172-1.63
			l2.853,0.271l1.629,2.309l-0.272,2.716l-0.95,2.036l-0.272,2.036l0.272,2.444l0.95,2.308l1.629,2.309l2.444,1.766l2.444,1.222
			l2.852,0.68l3.395,0.407h2.715l2.716-0.272l2.579-0.272l2.716-0.543l2.579-0.679l2.581-0.813l2.579-0.952l2.579-1.086l2.445-1.086
			l2.579-1.222l2.443-1.222l2.581-1.358l2.442-1.357l2.579-1.493l2.445-1.358l2.443-1.358l2.444-1.493l2.443-1.357l-0.406-2.715
			l-0.271-2.716l-0.272-2.716l-0.273-2.716l-0.134-2.715l-0.137-2.715l-0.137-2.852l-0.134-2.853l-0.137-2.986l-0.136-2.987
			l-0.137-2.716v-2.715v-2.715v-2.716v-0.135v-2.308l0.137-2.716v-2.852l-0.137-2.852v-2.715l-0.271-3.936l-0.543-2.717
			l-1.358-2.443l-1.493-0.543l-2.579,0.95l-2.444,2.445l-1.494,2.309l-0.814,2.714l-0.407,3.124v2.715v2.716v2.715v2.715v2.716
			v2.715v2.716v2.716v2.715v2.715v2.717v2.715v2.716l-1.087,2.579l-2.579,1.086l-2.579-1.086l-1.087-2.579v-2.716v-2.715v-2.581
			v-2.714v-2.718v-2.714v-2.717v-2.579v-2.715v-2.715v-2.716v-2.715v-2.715v-2.58v-2.715v-2.715v-2.852l-0.135-2.308l-0.408-1.628
			l-2.172-1.086l-2.444-1.358l-0.813-2.715l1.356-2.443l2.715-0.679l2.988,0.543l2.308,1.223l1.766,1.628l1.085,2.172l0.543,1.765
			l2.716-1.9l2.716-1.086l2.851-0.407l2.309,0.27l2.036,0.679l1.901,1.357l1.493,1.493l1.222,2.038l0.951,2.307l0.407,2.308
			l0.406,2.852l0.272,3.395v2.852l0.135,2.986v2.852l-0.135,2.716v2.579v2.715v2.58v2.715l0.135,2.581l0.137,2.85v2.853l0.136,2.852
			l0.136,2.85l0.137,2.581l0.271,2.579l0.271,2.716l0.272,2.579l0.272,2.716l2.579-1.223l2.58-1.086l2.579-0.95l2.579-0.95
			l2.717-0.813l2.714-0.815l2.717-0.543l2.851-0.407l2.852-0.272l2.852-0.135l3.529,0.135l3.259,0.406l2.987,0.546l2.851,0.949
			l2.581,0.95l2.309,1.358l2.172,1.357l2.036,1.629l1.764,1.63l1.495,1.9l1.357,1.9l1.086,2.037L410.022,296.498z M403.912,302.2
			l-0.541-2.714l-1.086-2.58l-1.087-2.037l-1.358-1.766l-1.766-1.629l-1.9-1.493l-2.309-1.357l-2.715-1.086l-2.852-0.679
			l-3.259-0.544l-3.529-0.136l-2.716,0.136l-2.579,0.272l-2.717,0.407l-2.579,0.544l-2.58,0.814l-2.579,0.813l-2.579,0.952
			l-2.445,1.085l-2.579,1.087l-2.444,1.221l0.68,2.852l0.813,2.852l0.815,2.716l1.086,2.579l1.086,2.309l1.223,2.172l1.493,2.037
			l1.493,1.901l1.766,1.766l1.9,1.627l2.172,1.359l2.309,1.086l2.581,0.95l2.851,0.816l2.987,0.407l3.259,0.271l3.122-0.136
			l2.852-0.409l2.443-0.813l2.309-0.949l2.036-1.223l1.766-1.359l1.629-1.627l1.223-1.766l1.221-2.58l0.815-2.58l0.407-2.716
			L403.912,302.2z"/>
	</g>
	<g>
		<path style="fill:#231F20;" d="M390.609,256.641l0.949,2.715l-0.406,2.988l-0.814,2.715l-1.086,2.443l-1.494,2.309l-1.63,1.9
			l-2.036,1.901l-2.309,1.356l-2.443,1.086l-2.579,0.68l-2.716,0.136l-2.309-0.271l-2.309-0.679l-2.172-0.952l-2.037-1.493l-1.9-1.9
			l-1.629-2.444l-0.951-1.899l-0.815-2.038l-0.679-2.173l-0.543-2.443l-0.407-2.715l-0.272-2.986v-3.124l0.137-2.036l0.136-2.852
			l0.271-2.579l0.544-2.716l0.543-2.715l0.815-2.58l1.086-2.581l1.223-2.443l1.492-2.309l1.767-2.036l2.035-1.766l2.444-1.222
			l2.715-0.814l3.123-0.407l3.124,0.407l2.85,1.223l2.308,1.9l1.629,2.445l0.95,2.715l0.272,3.123l-0.543,2.987l-1.357,3.122
			l-1.086,1.493l-1.223,1.493l-1.629,1.359l-1.901,1.357l-2.31,1.222l-2.442,1.086l-2.852,0.815l-3.259,0.814l-3.529,1.766v3.393
			l0.406,3.124l0.544,2.579l0.68,2.309l0.949,1.9l1.9,2.308l2.172,1.493l2.309,0.407l2.309-0.271l2.309-0.95l2.036-1.766l1.63-2.036
			l1.086-2.58l0.543-3.123l1.223-2.443l2.715-0.952L390.609,256.641z M367.799,237.498l-0.95,2.85l-0.68,2.988l3.396-0.679
			l2.987-0.95l2.443-1.086l1.901-1.222l1.356-1.222l1.087-1.357l0.95-2.715l-0.543-2.036l-3.259-2.038l-3.123,0.679l-2.444,1.765
			l-1.899,2.443L367.799,237.498z"/>
	</g>
	<g>
		<path style="fill:#231F20;" d="M295.063,106.844l-0.272,1.987l-0.541,1.895l-0.722,1.895l-0.722,1.355l-0.903,1.263l-0.993,1.264
			l-1.174,1.083l-1.354,1.084l-1.443,0.903l-1.535,0.903l-1.716,0.632l-1.895,0.632l-1.987,0.36l-2.165,0.272l-2.349,0.088
			l-1.895-0.088l-1.895-0.184l-1.896-0.268l-1.808-0.364l-1.805-0.54l-1.805-0.54l-1.806-0.631l-1.715-0.632l-1.716-0.724
			l-1.715-0.811l-0.09,1.803l-0.18,1.803l-0.09,1.807v1.807l-0.092,1.715v1.804l-0.09,1.719v1.803v1.715v1.807l1.355-1.087
			l1.354-0.808l1.535-0.544l1.443-0.184l1.535,0.184l1.354,0.452l1.445,1.083l1.264,1.624l0.991,2.167l0.362,1.352l0.18,1.535
			l0.182,1.807v1.895l0.091,1.895v1.987l-0.091,1.987v1.895l-0.09,1.983v1.719v1.711v1.719v1.712v1.719v1.803v1.715v1.715v1.715
			v1.715v2.707l0.36,1.719l1.445,0.72l1.625,0.903l0.54,1.807l-0.901,1.624l-1.806,0.54l-1.987-0.452l-1.533-0.72l-1.084-1.175
			l-0.814-1.443l-0.541-1.803l-0.18-2.079v-2.347v-1.715v-1.715v-1.715v-1.715v-1.803v-1.719v-1.712v-1.719v-1.711v-1.719
			l0.089-2.072v-1.99l0.091-2.072v-2.079l-0.091-1.983l-0.089-1.899l-0.181-1.627l-0.272-1.263l-0.811-1.532l-0.091-0.092
			l-0.993-0.36l-1.535,0.544l-1.623,1.624l-1.083,1.535l-0.814,1.803l-0.632,2.075v1.807v1.807v1.803v1.803v1.807v1.807l-0.09,1.895
			v1.807v1.804v1.803v1.807v1.807v1.807l-0.722,1.711l-1.715,0.724l-1.715-0.724l-0.722-1.711v-1.807v-1.895v-1.807v-1.895v-1.807
			v-1.895v-1.807l0.09-1.803v-1.895v-1.803v-1.896v-1.807v-1.895v-1.807v-2.527v-1.807v-1.807v-1.711v-1.807v-1.807l0.09-1.803
			v-1.803l0.09-1.719v-1.803l0.09-1.804l0.09-1.807l0.182-1.807l0.09-1.807l0.18-1.983l-1.625-0.903l-1.624-0.903l-1.535-0.904
			l-1.626-0.9l-1.715-0.995l-1.625-0.903l-1.715-0.9l-1.623-0.812l-1.715-0.815l-1.625-0.72l-1.715-0.72l-1.715-0.635l-1.715-0.54
			l-1.715-0.452l-1.805-0.364l-1.715-0.176l-1.805-0.184h-1.805l-2.257,0.272l-1.897,0.452l-1.624,0.812l-1.625,1.264l-1.083,1.447
			l-0.631,1.536l-0.182,1.623l0.182,1.352l0.631,1.355l0.18,1.803l-1.083,1.535l-1.895,0.272l-1.444-1.175l-0.723-1.624
			l-0.542-1.624l-0.18-1.715l0.09-1.987l0.452-1.896l0.812-1.807l0.813-1.352l1.084-1.175l1.174-1.08l1.443-0.996l1.355-0.631
			l1.534-0.54l1.625-0.456l1.715-0.36l1.895-0.18h1.805l1.807,0.092l1.805,0.18l1.715,0.268l1.715,0.456l1.715,0.448l1.623,0.452
			l1.715,0.632l1.625,0.635l1.626,0.72l1.535,0.72l1.624,0.815l1.625,0.812l1.535,0.899l1.535,0.815l1.624,0.904l1.535,0.903
			l1.625,0.992l1.715,0.903l0.452-1.895l0.632-1.895l0.632-1.807l0.812-1.715l0.904-1.715l0.991-1.535l1.084-1.535l1.083-1.352
			l1.174-1.175l1.355-1.175l1.354-0.992l1.442-0.992l1.625-0.815l1.626-0.72l1.805-0.544l1.895-0.448l1.986-0.272l2.167-0.184
			l2.075,0.092l1.987,0.18l1.895,0.271l1.715,0.544l1.535,0.631l1.533,0.72l1.355,0.903l1.174,0.992l1.174,1.087l0.991,1.172
			l0.814,1.263l0.901,1.715l0.724,1.895l0.45,1.987l0.182,1.987V106.844z M289.827,108.739l0.359-1.803l0.091-1.899l-0.271-1.803
			l-0.542-1.715l-0.812-1.715l-0.813-1.171l-1.084-1.087l-1.173-0.899l-1.354-0.812l-1.535-0.632l-1.625-0.544l-1.896-0.271
			l-2.074-0.088l-2.168,0.18l-1.987,0.268l-1.805,0.455l-1.715,0.632l-1.534,0.812l-1.444,0.899l-1.264,1.087l-1.173,1.171
			l-1.084,1.264l-0.994,1.443l-0.9,1.447l-0.813,1.624l-0.722,1.624l-0.632,1.719l-0.452,1.803l-0.452,1.803l1.716,0.815
			l1.625,0.812l1.715,0.724l1.716,0.632l1.715,0.632l1.715,0.448l1.806,0.456l1.715,0.272l1.805,0.176l1.806,0.092l2.349-0.092
			l2.165-0.36l1.896-0.544l1.806-0.631l1.533-0.9l1.264-0.995l1.176-1.08l0.901-1.263l0.722-1.264L289.827,108.739z"/>
	</g>
	<g>
		<path style="fill:#F17A9F;" d="M318.193,334.072c0,0-3.365-12.244-14.936-12.244c-11.569,0-19.463,12.475-17.039,25.528
			c4.208,22.663,27.968,37.771,29.235,37.771s30.54-17.583,32.4-38.031c1.683-18.495-7.009-24.131-13.252-25.269
			C327.449,320.526,320.298,325.476,318.193,334.072z"/>
	</g>
</g>
</svg>
